<svg width="512" height="512" viewBox="0 0 512 512" xmlns="http://www.w3.org/2000/svg">
  <rect width="512" height="512" rx="112" fill="#27AE60"/>
  <g fill="#ffffff" transform="translate(106,106) scale(3.0)">
    <path d="M50 92 L31 50 L41 50 L50 71 L59 50 L69 50 Z"/>
    <path d="M50 36 L57 50 L43 50 Z"/>
    <path d="M14 38 L24 33 L38 52 L30 58 Z"/>
    <path d="M86 38 L76 33 L62 52 L70 58 Z"/>
    <path d="M47 8 L53 8 L52 28 L48 28 Z"/>
    <path d="M30 12 L36 9 L44 28 L39 30 Z"/>
    <path d="M70 12 L64 9 L56 28 L61 30 Z"/>
    <path d="M16 22 L21 17 L36 33 L32 37 Z"/>
    <path d="M84 22 L79 17 L64 33 L68 37 Z"/>
  </g>
</svg>
