<?xml version="1.0" encoding="UTF-8"?>
<svg id="Layer_1" xmlns="http://www.w3.org/2000/svg" version="1.1" viewBox="0 0 903.96 315.06">
  <!-- Generator: Adobe Illustrator 30.5.1, SVG Export Plug-In . SVG Version: 2.1.4 Build 3)  -->
  <polygon points="448 204.68 477.05 110.47 507.59 110.47 464.21 242.47 431.05 242.47 386.56 110.47 418.95 110.47 448 204.68" fill="#1fac60"/>
  <rect x="557.3" y="110.45" width="30.71" height="132.02" fill="#1fac60"/>
  <polygon points="640.88 110.46 749.42 110.46 749.42 137.64 710.52 137.64 710.52 242.48 679.98 242.48 679.98 137.64 640.88 137.64 640.88 110.46" fill="#1fac60"/>
  <path d="M857.59,110.47l46.37,132h-32.22l-8.56-26.61h-49.89l-8.56,26.61h-30.73l46.18-132h37.42ZM838.24,137.46l-16.95,53.06h33.9l-16.95-53.06Z" fill="#1fac60"/>
  <path d="M27.89,251.69C-29.29,165.81,9.16,129.03,73.77,42.71c69.03-92.19,236.97-22.38,259.51,88.34,14.68,72.18-60.42,230.42-127.58,170.9-49.5-43.86-129.22,22.7-177.8-50.26" fill="#1fac60"/>
  <path d="M290.4,157.95l-11.64-27.78-66.4,33.74c-11.48,5.86-20.04,16.19-23.65,28.57l-19,74.61-18.98-74.61c-3.61-12.38-12.17-22.72-23.65-28.57l-66.4-33.74-11.64,27.78,49.02,19.87-48.37,9.66,5.4,26.84,60.88-19.34,40.92,112.1h25.67l40.92-112.1,60.88,19.34,5.4-26.84-48.37-9.66,49.02-19.87Z" fill="#f2f2f2"/>
  <path d="M190.26,148.43l75.93-46.41-18.19-19.09-50.71,38.62,18.19-53.13-27.03-4.62-18.74,56.56-18.74-56.56-27.03,4.62,21.55,53.13-54.08-38.62-18.17,19.09,75.92,46.41c12.61,7.71,28.48,7.71,41.1,0" fill="#f2f2f2"/>
</svg>